<?xml version="1.0" encoding="utf-8"?>
<!-- Generator: Adobe Illustrator 23.0.4, SVG Export Plug-In . SVG Version: 6.00 Build 0)  -->
<svg version="1.1" id="Capa_1" xmlns="http://www.w3.org/2000/svg" xmlns:xlink="http://www.w3.org/1999/xlink" x="0px" y="0px"
	 viewBox="0 0 97 76" style="enable-background:new 0 0 97 76;" xml:space="preserve">
<g>
	<path d="M80.8,0.5H16.2c-8.6,0-15.7,7-15.7,15.7v43.6c0,8.6,7,15.7,15.7,15.7h64.6c8.6,0,15.7-7,15.7-15.7V16.2
		C96.5,7.6,89.4,0.5,80.8,0.5z M80.8,5.5c5.9,0,10.8,4.8,10.8,10.8V17H5.5v-0.8c0-5.9,4.8-10.8,10.8-10.8 M80.8,70.5H16.2
		c-5.9,0-10.8-4.8-10.8-10.8V22h86.1v37.8C91.5,65.7,86.7,70.5,80.8,70.5z"/>
	<path d="M50.5,37h-8c-1.4,0-2.5,1.1-2.5,2.5s1.1,2.5,2.5,2.5h8c1.4,0,2.5-1.1,2.5-2.5S51.9,37,50.5,37z"/>
	<path d="M68.5,37h-8c-1.4,0-2.5,1.1-2.5,2.5s1.1,2.5,2.5,2.5h8c1.4,0,2.5-1.1,2.5-2.5S69.9,37,68.5,37z"/>
	<path d="M50.5,50h-8c-1.4,0-2.5,1.1-2.5,2.5s1.1,2.5,2.5,2.5h8c1.4,0,2.5-1.1,2.5-2.5S51.9,50,50.5,50z"/>
	<path d="M68.5,50h-8c-1.4,0-2.5,1.1-2.5,2.5s1.1,2.5,2.5,2.5h8c1.4,0,2.5-1.1,2.5-2.5S69.9,50,68.5,50z"/>
	<path d="M32.5,50h-8c-1.4,0-2.5,1.1-2.5,2.5s1.1,2.5,2.5,2.5h8c1.4,0,2.5-1.1,2.5-2.5S33.9,50,32.5,50z"/>
</g>
</svg>
