<?xml version="1.0" encoding="utf-8"?>
<!-- Generator: Adobe Illustrator 23.0.6, SVG Export Plug-In . SVG Version: 6.00 Build 0)  -->
<svg version="1.1" id="Capa_1" xmlns="http://www.w3.org/2000/svg" xmlns:xlink="http://www.w3.org/1999/xlink" x="0px" y="0px"
	 viewBox="0 0 348 340.8" style="enable-background:new 0 0 348 340.8;" xml:space="preserve">
<g>
	<g>
		<path d="M175.1,22.6c4,0,7.9,1.3,11,4l137.1,120c6.2,5.4,6.8,14.8,1.2,20.9l-3.9,4.3c-3.9,4.3-8.8,6.8-12.5,6.8
			c-1.5,0-2.9-0.4-3.9-1.3c-3.5-3.1-6.3-5.6-6.3-5.6v132.9c0,8.3-6.7,15-15,15H226c-8.3,0-14.2-6.7-14.1-15v-94.3h-68.4v94.3
			c0,8.3-6.7,15-15,15H74.9c-8.3,0-15-6.7-15-15V169.9l-10.3,9.2c-2.5,2.3-5.8,3.4-9.1,3.4c-4.1,0-8.3-1.7-11.5-5l-3.4-3.6
			c-5.7-6-5.4-15.3,0.7-20.9L163.8,26.9C166.9,24.1,171,22.6,175.1,22.6 M175.1,3.6c-9.1,0-17.6,3.3-24.1,9.3L13.4,139
			c-6.8,6.2-10.6,14.6-10.9,23.7c-0.3,9.1,3.1,17.8,9.4,24.4l3.4,3.6c6.6,6.9,15.8,10.8,25.2,10.8c0.1,0,0.3,0,0.4,0v103.2
			c0,18.7,15.2,34,34,34h53.6c18.7,0,34-15.2,34-34v-75.3h30.4v75.2c-0.1,9.3,3.3,17.9,9.7,24.4c6.2,6.3,14.5,9.7,23.4,9.7h56.8
			c18.7,0,34-15.2,34-34V196.3c6.4-2,12.6-6,17.8-11.7l3.9-4.3c6.2-6.8,9.3-15.5,8.7-24.6c-0.5-9.1-4.6-17.4-11.5-23.4l-137.1-120
			C192.2,6.7,183.9,3.6,175.1,3.6L175.1,3.6z"/>
	</g>
	<g>
	</g>
	<g>
	</g>
	<g>
	</g>
	<g>
	</g>
	<g>
	</g>
	<g>
	</g>
	<g>
	</g>
	<g>
	</g>
	<g>
	</g>
	<g>
	</g>
	<g>
	</g>
	<g>
	</g>
	<g>
	</g>
	<g>
	</g>
	<g>
	</g>
</g>
</svg>
