<?xml version="1.0" encoding="utf-8"?>
<!-- Generator: Adobe Illustrator 23.0.4, SVG Export Plug-In . SVG Version: 6.00 Build 0)  -->
<svg version="1.1" id="Capa_1" xmlns="http://www.w3.org/2000/svg" xmlns:xlink="http://www.w3.org/1999/xlink" x="0px" y="0px"
	 viewBox="0 0 371.8 143.5" style="enable-background:new 0 0 371.8 143.5;" xml:space="preserve">
<g>
	<g>
		<path d="M0,60.7V46.4c0-14.5,8.4-23.2,24.3-23.2c16.5,0,24.4,9.6,24.4,22.8V52c0,1.9-0.9,3.1-3.3,3.1H7.4v6.4
			c0,9.3,5.6,15.1,16.5,15.1c9,0,14.2-3.6,17.3-9.1c1-1.3,1.8-1.5,3.2-0.8l2.3,1.2c1.4,0.8,1.6,1.8,0.8,3.2
			C43.6,78,36.5,82.9,23.8,82.9C7.4,82.9,0,73.9,0,60.7z M41.4,49.4v-3.8c0-9.8-5.7-16-17.1-16c-11.2,0-16.9,6.2-16.9,16v3.8H41.4z"
			/>
		<path d="M63,79.4V33c0-3.4,0.9-4.8,4.2-6.3c3.9-1.8,9.4-3.5,17.8-3.5c6.6,0,11.4,1.6,14.6,4.7c2.3-1.1,9.2-4.7,20.1-4.7
			c14.2,0,20.5,7.4,20.5,20.9v35.3c0,1.5-0.5,2-2,2h-3.4c-1.5,0-2-0.4-2-2v-35c0-9.8-4.4-14.5-14.1-14.5c-7.6,0-13,2.8-15.2,3.7
			c1.5,2.9,2.2,6.3,2.2,10.5v35.3c0,1.5-0.5,2-2,2h-3.4c-1.5,0-2-0.4-2-2v-35c0-9.8-4.7-14.5-14.3-14.5c-5.3,0-8.7,0.9-11.9,2.3
			c-1.6,0.8-1.9,1.8-1.9,3v44.2c0,1.5-0.4,2-2,2H65C63.6,81.4,63,81,63,79.4z"/>
		<path d="M155,60.7V46.4c0-14.5,8.4-23.2,24.3-23.2c16.5,0,24.4,9.6,24.4,22.8V52c0,1.9-0.9,3.1-3.3,3.1h-38.1v6.4
			c0,9.3,5.6,15.1,16.5,15.1c9,0,14.2-3.6,17.3-9.1c1-1.3,1.8-1.5,3.2-0.8l2.3,1.2c1.4,0.8,1.7,1.8,0.8,3.2
			c-3.9,6.9-10.9,11.9-23.7,11.9C162.4,82.9,155,73.9,155,60.7z M196.3,49.4v-3.8c0-9.8-5.7-16-17.1-16c-11.2,0-16.9,6.2-16.9,16
			v3.8H196.3z"/>
		<path d="M216.6,78V32.8c0-3.5,0.8-4.8,4.2-6.3c4.5-1.8,11.1-3.7,21.7-3.7c15.7,0,22.9,8.1,22.9,22.1V78c0,2.5-0.9,3.4-3.4,3.4H256
			c-2.5,0-3.4-0.9-3.4-3.4V45.2c0-7.3-3.8-10.8-12-10.8c-4.2,0-7.7,0.7-10.6,1.4c-0.4,0.2-0.7,0.7-0.7,1.1v41c0,2.5-0.9,3.4-3.4,3.4
			h-6C217.4,81.4,216.6,80.5,216.6,78z"/>
		<path d="M284.1,57.1V36.2h-7.5c-2.5,0-3.4-0.9-3.4-3.4v-5.1c0-2.5,0.9-3.3,3.4-3.3h7.5v-9.9c0-2.5,0.9-3.3,3.4-3.3h6
			c2.5,0,3.3,0.8,3.3,3.3v9.9h12.7c2.5,0,3.3,0.8,3.3,3.3v5.1c0,2.5-0.8,3.4-3.3,3.4h-12.7v20.5c0,10.8,3.3,12.6,12.5,12.6
			c2.5,0,3.4,0.9,3.4,3.4v5.2c0,2.5-0.9,3.5-3.4,3.5C290.8,81.4,284.1,76.1,284.1,57.1z"/>
		<path d="M323.1,78V3.4c0-2.5,0.8-3.4,3.3-3.4h6c2.5,0,3.4,0.9,3.4,3.4v20.9c1-0.5,6.6-1.5,13.1-1.5c15.7,0,22.9,8.1,22.9,22.1V78
			c0,2.5-0.8,3.4-3.4,3.4h-5.9c-2.5,0-3.4-0.9-3.4-3.4V45.2c0-7-4.2-10.8-12-10.8c-5.4,0-10.2,1.1-11.2,1.7V78
			c0,2.5-0.9,3.4-3.4,3.4h-6C323.8,81.4,323.1,80.5,323.1,78z"/>
	</g>
	<g>
		<path d="M45.4,133.1c-1.3-0.6-1.5-0.9-1.5-2.2v-25.8c0-0.7,0.2-1,1-1h1.6c0.7,0,1,0.2,1,1v8.4c1.1-0.4,3.2-1,5.6-1
			c5.6,0,8.1,3,8.1,7.9v5.6c0,5.4-2.8,8.3-8.8,8.3C49.2,134.4,46.8,133.7,45.4,133.1z M57.6,125.9v-5.4c0-3.1-1.6-4.8-5-4.8
			c-2.3,0-4.2,0.7-5.2,1v12.9c0,0.4,0,0.6,0.6,0.8c1,0.4,2.4,0.6,4.1,0.6C55.8,131.1,57.6,129.4,57.6,125.9z"/>
		<path d="M72.8,126.7v-6.6c0-4.7,3.3-7.6,9-7.6c5.8,0,9,2.9,9,7.6v6.6c0,4.7-3.2,7.6-9,7.6C76.2,134.4,72.8,131.5,72.8,126.7z
			 M87.2,126.7v-6.6c0-2.8-2-4.4-5.4-4.4c-3.3,0-5.4,1.6-5.4,4.4v6.6c0,2.8,2.1,4.4,5.4,4.4C85.2,131.1,87.2,129.5,87.2,126.7z"/>
		<path d="M100.9,132.7l6.9-9.5l-6.6-9c-0.4-0.6-0.4-1.1,0.7-1.1h1.4c1,0,1.3,0.1,1.8,0.8l4.8,6.6l4.8-6.6c0.5-0.7,0.6-0.8,1.6-0.8
			h1.6c1,0,1.1,0.4,0.6,1.1l-6.5,9l6.9,9.5c0.5,0.8,0.3,1.1-0.7,1.1h-1.5c-1,0-1.2-0.1-1.7-0.8l-5.2-7.3l-5.2,7.3
			c-0.4,0.7-0.7,0.8-1.7,0.8h-1.5C100.5,133.8,100.4,133.4,100.9,132.7z"/>
		<path d="M130.9,132.7v-26.3c0-0.8,0.3-1,1.1-1h1.4c0.9,0,1.1,0.2,1.5,0.8l9.2,16.4l9.2-16.3c0.4-0.7,0.6-0.8,1.4-0.8h1.5
			c0.8,0,1,0.3,1,1v26.3c0,0.8-0.2,1-1,1h-1.6c-0.8,0-1.1-0.3-1.1-1l0-14.5c0-2.2,0.2-4.7,0.7-7.5H154c-1,2.6-2,4.6-3.2,6.7
			l-5.1,9.1c-0.3,0.6-0.6,0.8-1.2,0.8h-1c-0.7,0-0.9-0.2-1.2-0.8l-5.2-9.1c-1.2-2.1-2-3.9-3-6.7h-0.2c0.4,2.9,0.6,5.2,0.6,7.5v14.5
			c0,0.8-0.2,1-1,1H132C131.2,133.8,130.9,133.5,130.9,132.7z"/>
		<path d="M169.6,128c0-4.7,2.6-6.2,8.9-6.2c2,0,3.9,0.2,4.6,0.3v-1.6c0-2.8-1-4.8-4.8-4.8c-2.4,0-4,0.8-5,2.5
			c-0.4,0.6-0.6,0.7-1.3,0.4l-1.3-0.5c-0.7-0.3-0.9-0.6-0.5-1.4c1.4-2.6,4-4.2,8.2-4.2c6.4,0,8.2,3.6,8.2,8.1v10.4
			c0,1.4-0.3,1.8-1.4,2.3c-1.5,0.6-3.8,1-6.9,1C171.3,134.4,169.6,132.1,169.6,128z M182.4,130.9c0.5-0.2,0.6-0.3,0.6-0.9v-5.1
			c-0.8-0.1-3-0.3-5-0.3c-3.8,0-4.9,1.1-4.9,3.4c0,2.1,0.8,3.4,4.8,3.4C180.2,131.4,181.5,131.2,182.4,130.9z"/>
		<path d="M199.2,132.8v-16.7c0-1.2,0.3-1.7,1.5-2.2c1.6-0.6,3.9-1.4,7.6-1.4c5.6,0,8.1,3,8.1,7.9v12.4c0,0.7-0.2,1-1,1h-1.6
			c-0.7,0-1-0.2-1-1v-12.2c0-3.2-1.6-4.8-5-4.8c-2,0-3.5,0.4-4.6,0.8c-0.4,0.2-0.5,0.4-0.5,0.7v15.6c0,0.7-0.2,1-1,1h-1.6
			C199.5,133.8,199.2,133.5,199.2,132.8z"/>
		<path d="M228.3,128c0-4.7,2.6-6.2,8.9-6.2c2,0,3.9,0.2,4.6,0.3v-1.6c0-2.8-1-4.8-4.8-4.8c-2.4,0-4,0.8-5,2.5
			c-0.4,0.6-0.6,0.7-1.3,0.4l-1.3-0.5c-0.7-0.3-0.9-0.6-0.5-1.4c1.4-2.6,4-4.2,8.2-4.2c6.4,0,8.2,3.6,8.2,8.1v10.4
			c0,1.4-0.3,1.8-1.4,2.3c-1.5,0.6-3.8,1-6.9,1C230,134.4,228.3,132.1,228.3,128z M241.2,130.9c0.5-0.2,0.6-0.3,0.6-0.9v-5.1
			c-0.8-0.1-3-0.3-5-0.3c-3.8,0-4.9,1.1-4.9,3.4c0,2.1,0.8,3.4,4.8,3.4C238.9,131.4,240.2,131.2,241.2,130.9z"/>
		<path d="M257.9,139.3c-0.4-0.7-0.3-1.2,0.4-1.5l1.2-0.6c0.8-0.4,1.1-0.2,1.6,0.4c1,1.6,2.3,2.7,5,2.7c3.5,0,5.1-2,5.1-5.3v-2.3
			c-1.1,0.4-3.2,1-5.6,1c-5.6,0-8.1-3-8.1-7.9v-4.9c0-5.4,2.8-8.3,8.8-8.3c3.1,0,5.6,0.6,7,1.2c1.3,0.6,1.5,0.9,1.5,2.2v18.8
			c0,5.2-2.4,8.7-8.6,8.7C261.7,143.5,259.3,141.8,257.9,139.3z M271.1,129.5v-12.3c0-0.5-0.1-0.6-0.6-0.8c-1-0.3-2.4-0.6-4.1-0.6
			c-3.7,0-5.5,1.7-5.5,5.2v4.7c0,3,1.7,4.8,5,4.8C268.3,130.4,270.1,129.8,271.1,129.5z"/>
		<path d="M286.8,126.1v-5c0-5.4,3.2-8.6,9-8.6c6.2,0,9,3.6,9,8.3v2.3c0,0.8-0.4,1.4-1.4,1.4h-13.1v1.9c0,3,1.9,4.8,5.4,4.8
			c2.9,0,4.6-1.1,5.6-2.8c0.5-0.6,0.8-0.8,1.6-0.4l1.1,0.6c0.7,0.4,0.8,0.9,0.4,1.6c-1.4,2.4-4,4.1-8.6,4.1
			C289.5,134.4,286.8,130.9,286.8,126.1z M301.4,121.8v-1.2c0-3.2-1.8-5-5.5-5c-3.6,0-5.5,1.9-5.5,5v1.2H301.4z"/>
		<path d="M316.9,132.8v-16.2c0-1.2,0.3-1.7,1.5-2.2c1.5-0.6,3.8-1.2,7.3-1.2h1.3c0.7,0,1,0.2,1,1v1.3c0,0.7-0.2,1-1,1h-1.4
			c-2,0-3.5,0.3-4.6,0.7c-0.5,0.2-0.6,0.5-0.6,0.8v15c0,0.7-0.2,1-1,1h-1.6C317.1,133.8,316.9,133.5,316.9,132.8z"/>
	</g>
</g>
</svg>
