<?xml version="1.0" encoding="utf-8"?>
<!-- Generator: Adobe Illustrator 23.0.4, SVG Export Plug-In . SVG Version: 6.00 Build 0)  -->
<svg version="1.1" id="Capa_1" xmlns="http://www.w3.org/2000/svg" xmlns:xlink="http://www.w3.org/1999/xlink" x="0px" y="0px"
	 viewBox="0 0 371.8 82.9" style="enable-background:new 0 0 371.8 82.9;" xml:space="preserve">
<g>
	<path d="M0,60.7V46.4c0-14.5,8.4-23.2,24.3-23.2c16.5,0,24.4,9.6,24.4,22.8v6c0,1.9-0.9,3.1-3.3,3.1h-38v6.4
		c0,9.3,5.6,15.1,16.5,15.1c9,0,14.2-3.6,17.3-9.1c1-1.3,1.8-1.5,3.2-0.8l2.3,1.2c1.4,0.8,1.7,1.8,0.8,3.2
		c-3.9,6.9-11,11.8-23.7,11.8C7.4,82.9,0,73.9,0,60.7z M41.4,49.4v-3.8c0-9.8-5.7-16-17.1-16c-11.2,0-16.9,6.2-16.9,16v3.8H41.4z"/>
	<path d="M63,79.4V33c0-3.4,0.9-4.8,4.2-6.3c3.8-1.8,9.3-3.5,17.8-3.5c6.6,0,11.4,1.7,14.6,4.7c2.3-1.1,9.2-4.7,20.1-4.7
		c14.2,0,20.5,7.4,20.5,20.9v35.3c0,1.5-0.6,2-2,2h-3.4c-1.5,0-2-0.4-2-2v-35c0-9.8-4.4-14.5-14.1-14.5c-7.6,0-13,2.8-15.2,3.7
		c1.5,2.9,2.2,6.3,2.2,10.5v35.3c0,1.5-0.6,2-2,2h-3.4c-1.5,0-2-0.4-2-2v-35c0-9.8-4.7-14.5-14.3-14.5c-5.3,0-8.7,0.9-11.9,2.3
		c-1.7,0.8-1.9,1.8-1.9,3v44.2c0,1.5-0.4,2-2,2H65C63.6,81.4,63,81,63,79.4z"/>
	<path d="M155,60.7V46.4c0-14.5,8.4-23.2,24.3-23.2c16.5,0,24.4,9.6,24.4,22.8v6c0,1.9-0.9,3.1-3.3,3.1h-38.1v6.4
		c0,9.3,5.6,15.1,16.5,15.1c9,0,14.2-3.6,17.3-9.1c1-1.3,1.8-1.5,3.2-0.8l2.3,1.2c1.4,0.8,1.6,1.8,0.8,3.2
		C198.5,78,191.5,83,178.8,83C162.4,82.9,155,73.9,155,60.7z M196.4,49.4v-3.8c0-9.8-5.7-16-17.1-16c-11.2,0-16.9,6.2-16.9,16v3.8
		H196.4z"/>
	<path d="M216.6,78V32.8c0-3.5,0.8-4.8,4.2-6.3c4.5-1.8,11.1-3.7,21.7-3.7c15.7,0,22.9,8.1,22.9,22.1V78c0,2.5-0.9,3.4-3.4,3.4h-6
		c-2.5,0-3.4-0.9-3.4-3.4V45.2c0-7.3-3.9-10.8-12-10.8c-4.2,0-7.7,0.7-10.6,1.4c-0.4,0.2-0.7,0.7-0.7,1.1v41c0,2.5-0.9,3.4-3.4,3.4
		h-6.1C217.4,81.4,216.6,80.5,216.6,78z"/>
	<path d="M284.1,57.1V36.2h-7.5c-2.5,0-3.4-0.9-3.4-3.4v-5.1c0-2.5,0.9-3.3,3.4-3.3h7.5v-9.9c0-2.5,0.9-3.3,3.4-3.3h6
		c2.5,0,3.3,0.8,3.3,3.3v9.9h12.6c2.5,0,3.3,0.8,3.3,3.3v5.1c0,2.5-0.8,3.4-3.3,3.4h-12.6v20.5c0,10.8,3.3,12.7,12.5,12.7
		c2.5,0,3.4,0.9,3.4,3.4V78c0,2.5-0.9,3.5-3.4,3.5C290.8,81.4,284.1,76.1,284.1,57.1z"/>
	<path d="M323.1,78V3.4c0-2.5,0.8-3.4,3.3-3.4h6c2.5,0,3.4,0.9,3.4,3.4v20.9c1-0.5,6.6-1.5,13.1-1.5c15.7,0,22.9,8.1,22.9,22.1V78
		c0,2.5-0.8,3.4-3.4,3.4h-5.9c-2.5,0-3.4-0.9-3.4-3.4V45.2c0-7-4.2-10.8-12-10.8c-5.4,0-10.2,1.1-11.2,1.7V78c0,2.5-0.9,3.4-3.4,3.4
		h-6C323.8,81.4,323.1,80.5,323.1,78z"/>
</g>
</svg>
